<?xml version="1.0" encoding="utf-8"?>
<!-- Generator: Adobe Illustrator 26.0.0, SVG Export Plug-In . SVG Version: 6.00 Build 0)  -->
<svg version="1.1" id="Capa_1" xmlns="http://www.w3.org/2000/svg" xmlns:xlink="http://www.w3.org/1999/xlink" x="0px" y="0px"
	 viewBox="0 0 193.63 177.55" style="enable-background:new 0 0 193.63 177.55;" xml:space="preserve">
<style type="text/css">
	.st0{fill:#3EB077;}
	.st1{fill:#50B47C;}
</style>
<path class="st0" d="M155.23,92.85l-28.3-28.3V83.5H63.51c-0.81-0.02-2.17-0.09-3.71-0.35c-2.17-2.11-5.06-3.41-8.24-3.41
	c-6.76,0-12.23,5.83-12.23,13.02s5.48,13.02,12.23,13.02c3.05,0,5.84-1.2,7.98-3.16c2.63-0.46,4.78-0.39,4.78-0.39l0.01-0.01h62.59
	v18.95L155.23,92.85z"/>
<g>
	<polygon class="st1" points="132.62,127.41 129.01,123.96 158.67,92.86 128.45,61.17 132.07,57.72 165.58,92.86 	"/>
</g>
</svg>
