<?xml version="1.0" encoding="utf-8"?>
<!-- Generator: Adobe Illustrator 26.0.0, SVG Export Plug-In . SVG Version: 6.00 Build 0)  -->
<svg version="1.1" id="Capa_1" xmlns="http://www.w3.org/2000/svg" xmlns:xlink="http://www.w3.org/1999/xlink" x="0px" y="0px"
	 viewBox="0 0 193.63 177.55" style="enable-background:new 0 0 193.63 177.55;" xml:space="preserve">
<style type="text/css">
	.st0{fill:#50B47C;}
	.st1{fill:#3EB077;}
</style>
<g>
	<polygon class="st0" points="64.35,127.45 29.76,92.86 64.94,57.68 68.47,61.22 36.83,92.86 67.89,123.92 	"/>
</g>
<path class="st1" d="M40.75,92.86l28.3-28.3V83.5h63.41c0.81-0.02,2.17-0.09,3.71-0.35c2.17-2.11,5.06-3.41,8.24-3.41
	c6.76,0,12.23,5.83,12.23,13.02s-5.48,13.02-12.23,13.02c-3.05,0-5.84-1.2-7.98-3.16c-2.63-0.46-4.78-0.39-4.78-0.39l-0.01-0.01
	H69.05v18.95L40.75,92.86z"/>
</svg>
