<?xml version="1.0" encoding="utf-8"?>
<!-- Generator: Adobe Illustrator 26.0.0, SVG Export Plug-In . SVG Version: 6.00 Build 0)  -->
<svg version="1.1" id="Capa_1" xmlns="http://www.w3.org/2000/svg" xmlns:xlink="http://www.w3.org/1999/xlink" x="0px" y="0px"
	 viewBox="0 0 193.63 177.55" style="enable-background:new 0 0 193.63 177.55;" xml:space="preserve">
<style type="text/css">
	.st0{fill:#0A9E64;}
</style>
<g>
	<g>
		<polygon class="st0" points="43.56,42 40.56,42 40.56,32.81 160.65,32.81 160.65,41.89 157.65,41.89 157.65,35.81 43.56,35.81 		
			"/>
	</g>
	<g>
		<rect x="40.56" y="91.04" class="st0" width="3" height="1.08"/>
	</g>
	<g>
		<polygon class="st0" points="160.65,152.9 40.56,152.9 40.56,143.19 43.56,143.19 43.56,149.9 157.65,149.9 157.65,142.66 
			160.65,142.66 		"/>
	</g>
	<g>
		<rect x="157.65" y="91.04" class="st0" width="3" height="1.08"/>
	</g>
	<g>
		<path class="st0" d="M163.88,91.04H36.98V40.5h126.9V91.04z M39.98,88.04h120.9V43.5H39.98V88.04z"/>
	</g>
	<g>
		<path class="st0" d="M163.88,144.69H36.98V92.12h126.9V144.69z M39.98,141.69h120.9V95.12H39.98V141.69z"/>
	</g>
	<g>
		<path class="st0" d="M122.71,71.64H83.22v-9.29h39.49V71.64z M86.22,68.64h33.49v-3.29H86.22V68.64z"/>
	</g>
	<g>
		<path class="st0" d="M122.71,121.09H83.22v-9.29h39.49V121.09z M86.22,118.09h33.49v-3.29H86.22V118.09z"/>
	</g>
</g>
</svg>
