<?xml version="1.0" encoding="utf-8"?>
<!-- Generator: Adobe Illustrator 26.0.0, SVG Export Plug-In . SVG Version: 6.00 Build 0)  -->
<svg version="1.1" id="Capa_1" xmlns="http://www.w3.org/2000/svg" xmlns:xlink="http://www.w3.org/1999/xlink" x="0px" y="0px"
	 viewBox="0 0 193.63 177.55" style="enable-background:new 0 0 193.63 177.55;" xml:space="preserve">
<style type="text/css">
	.st0{fill:#50B47C;}
</style>
<path class="st0" d="M62.88,61.46c0,2.89,2.15,5.24,4.8,5.24c2.65,0,4.8-2.35,4.8-5.24s-2.15-5.24-4.8-5.24
	C65.03,56.22,62.88,58.56,62.88,61.46z M61.84,72.12c-5.61,21.15,4.58,44.9,24.76,53.42c18.52,8.28,40.64,0.98,52.32-15.49
	l-14.77-0.89l22.8-11.36l0.22,25.01l-7.41-12.63c-9.45,19.76-34.84,29.17-55.1,19.95C62.87,121.06,51.79,93.68,61.84,72.12z
	 M81.1,44.3c2.65,0,4.8,2.35,4.8,5.24s-2.15,5.24-4.8,5.24s-4.8-2.35-4.8-5.24S78.45,44.3,81.1,44.3z M97.58,39.06
	c2.65,0,4.8,2.35,4.8,5.24s-2.15,5.24-4.8,5.24c-2.65,0-4.8-2.35-4.8-5.24S94.93,39.06,97.58,39.06z M114.21,41.72
	c1.98,0,3.58,1.75,3.58,3.91s-1.6,3.91-3.58,3.91s-3.58-1.75-3.58-3.91S112.23,41.72,114.21,41.72z M127.13,50.34
	c0.83,0,1.5,0.73,1.5,1.64c0,0.9-0.67,1.64-1.5,1.64s-1.5-0.73-1.5-1.64C125.63,51.08,126.3,50.34,127.13,50.34z M142.61,72.54
	c0.2,0,0.35,0.17,0.35,0.39c0,0.21-0.16,0.39-0.35,0.39c-0.2,0-0.35-0.17-0.35-0.39C142.25,72.71,142.41,72.54,142.61,72.54z
	 M136.44,60.49c0.49,0,0.89,0.43,0.89,0.97s-0.4,0.97-0.89,0.97s-0.89-0.43-0.89-0.97S135.95,60.49,136.44,60.49z"/>
</svg>
