<?xml version="1.0" encoding="utf-8"?>
<!-- Generator: Adobe Illustrator 26.0.0, SVG Export Plug-In . SVG Version: 6.00 Build 0)  -->
<svg version="1.1" id="Capa_1" xmlns="http://www.w3.org/2000/svg" xmlns:xlink="http://www.w3.org/1999/xlink" x="0px" y="0px"
	 viewBox="0 0 193.63 177.55" style="enable-background:new 0 0 193.63 177.55;" xml:space="preserve">
<style type="text/css">
	.st0{fill:#50B47C;}
</style>
<path class="st0" d="M142.78,61.46c0,2.89-2.17,5.24-4.85,5.24c-2.68,0-4.85-2.35-4.85-5.24s2.17-5.24,4.85-5.24
	C140.61,56.22,142.78,58.56,142.78,61.46z M143.83,72.12c5.67,21.15-4.63,44.9-25.01,53.42c-18.7,8.28-41.04,0.98-52.84-15.49
	l14.92-0.89L57.88,97.81l-0.22,25.01l7.48-12.63c9.54,19.76,35.18,29.17,55.65,19.95C142.79,121.06,153.98,93.68,143.83,72.12z
	 M124.38,44.3c-2.68,0-4.85,2.35-4.85,5.24s2.17,5.24,4.85,5.24c2.68,0,4.85-2.35,4.85-5.24S127.06,44.3,124.38,44.3z M107.73,39.06
	c-2.68,0-4.85,2.35-4.85,5.24s2.17,5.24,4.85,5.24s4.85-2.35,4.85-5.24S110.41,39.06,107.73,39.06z M90.94,41.72
	c-2,0-3.62,1.75-3.62,3.91s1.62,3.91,3.62,3.91c2,0,3.62-1.75,3.62-3.91S92.93,41.72,90.94,41.72z M77.89,50.34
	c-0.84,0-1.51,0.73-1.51,1.64c0,0.9,0.68,1.64,1.51,1.64s1.51-0.73,1.51-1.64C79.4,51.08,78.72,50.34,77.89,50.34z M62.26,72.54
	c-0.2,0-0.36,0.17-0.36,0.39c0,0.21,0.16,0.39,0.36,0.39s0.36-0.17,0.36-0.39C62.61,72.71,62.45,72.54,62.26,72.54z M68.49,60.49
	c-0.49,0-0.89,0.43-0.89,0.97s0.4,0.97,0.89,0.97s0.89-0.43,0.89-0.97S68.98,60.49,68.49,60.49z"/>
</svg>
