<?xml version="1.0" encoding="utf-8"?>
<!-- Generator: Adobe Illustrator 26.0.0, SVG Export Plug-In . SVG Version: 6.00 Build 0)  -->
<svg version="1.1" id="Capa_1" xmlns="http://www.w3.org/2000/svg" xmlns:xlink="http://www.w3.org/1999/xlink" x="0px" y="0px"
	 viewBox="0 0 193.63 177.55" style="enable-background:new 0 0 193.63 177.55;" xml:space="preserve">
<style type="text/css">
	.st0{fill:none;}
	.st1{fill:#EAF4F0;}
	.st2{fill:#0A9E64;}
</style>
<g>
	<path class="st0" d="M84.74,109.16l8.02,6.31l34.69-44.12l-8.02-6.31L84.74,109.16z M124.65,71.69l-32.22,40.97l-4.88-3.84
		l32.22-40.97L124.65,71.69z"/>
	<path class="st0" d="M132.09,57.21c-1.11-0.87-2.57-1.14-4.1-0.76c-1.4,0.35-2.71,1.22-3.71,2.45c-0.03,0.03-0.06,0.06-0.08,0.09
		c0,0,0,0-0.01,0.01l0,0l-3.88,4.94l8.02,6.31l3.88-4.94l0,0c0,0,0,0,0,0c0.03-0.03,0.04-0.07,0.07-0.1
		C134.35,62.49,134.27,58.93,132.09,57.21z M128,67.43l-4.88-3.84l1.49-1.89l4.88,3.84L128,67.43z M130.72,63.96l-4.86-3.83
		c0.72-0.88,1.65-1.5,2.62-1.75c0.92-0.23,1.76-0.09,2.38,0.39C132.17,59.82,132.1,62.12,130.72,63.96z"/>
	<path class="st0" d="M78.23,125.7l13.35-8.81l-7.93-6.24L78.23,125.7z M88.16,116.74l-6.02,3.97l2.44-6.78L88.16,116.74z"/>
	<path class="st1" d="M132.3,65.2L132.3,65.2c-0.03,0.03-0.05,0.06-0.08,0.1L132.3,65.2z"/>
	<path class="st1" d="M124.27,58.89l-0.07,0.09C124.22,58.96,124.25,58.93,124.27,58.89L124.27,58.89z"/>
	<path class="st2" d="M130.85,58.78c1.32,1.04,1.25,3.34-0.14,5.18l-4.86-3.83c0.72-0.88,1.65-1.5,2.62-1.75
		C129.4,58.16,130.24,58.3,130.85,58.78z M92.43,112.66l32.22-40.97l-4.88-3.84l-32.22,40.97L92.43,112.66z M158.1,16.33v142.59
		c0,7.05-5.71,12.76-12.76,12.76H55.31c-7.05,0-12.76-5.71-12.76-12.76v-11.87h14.98v-11.44H42.55v-14.75h16.07v-11.44H42.55v-16.2
		h16.07V81.78H42.55V66.42h16.07V54.98H42.55V39.63h16.07V28.19H42.55V16.33c0-7.05,5.71-12.76,12.76-12.76h90.04
		C152.39,3.57,158.1,9.28,158.1,16.33z M91.58,116.89l-7.93-6.24l-5.42,15.05L91.58,116.89z M127.46,71.35l-8.02-6.31l-34.69,44.12
		l8.02,6.31L127.46,71.35z M132.29,65.2c2.06-2.71,1.99-6.27-0.2-7.99c-1.11-0.87-2.57-1.14-4.1-0.76c-1.4,0.35-2.71,1.22-3.71,2.45
		l-0.01-0.01l-0.07,0.09c0,0,0,0-0.01,0.01l0,0l-3.88,4.94l8.02,6.31l3.88-4.94l0,0c0,0,0,0,0,0L132.29,65.2L132.29,65.2z
		 M88.16,116.74l-3.57-2.81l-2.44,6.78L88.16,116.74z M123.12,63.6l4.88,3.84l1.49-1.89l-4.88-3.84L123.12,63.6z M33.98,31.19v5.44
		h21.63v-5.44H33.98z M33.98,112.42v5.44h21.63v-5.44H33.98z M33.98,57.98v5.44h21.63v-5.44H33.98z M33.98,84.78v5.44h21.63v-5.44
		H33.98z M32.89,138.61v5.44h21.63v-5.44H32.89z"/>
</g>
</svg>
