<?xml version="1.0" encoding="utf-8"?>
<!-- Generator: Adobe Illustrator 26.0.0, SVG Export Plug-In . SVG Version: 6.00 Build 0)  -->
<svg version="1.1" id="Capa_1" xmlns="http://www.w3.org/2000/svg" xmlns:xlink="http://www.w3.org/1999/xlink" x="0px" y="0px"
	 viewBox="0 0 193.63 177.55" style="enable-background:new 0 0 193.63 177.55;" xml:space="preserve">
<style type="text/css">
	.st0{fill:#3EB077;}
</style>
<g>
	<path class="st0" d="M145.89,143.55c-2.39,0-4.65-0.9-6.39-2.55l-39.76-37.73c-6,3.96-12.94,6.05-20.18,6.05
		c-20.25,0-36.72-16.47-36.72-36.72s16.47-36.72,36.72-36.72s36.72,16.47,36.72,36.72c0,5.75-1.36,11.44-3.94,16.55l40.18,38.13
		c1.8,1.71,2.83,4.01,2.89,6.49c0.06,2.48-0.84,4.84-2.55,6.64l-0.23,0.24c-1.71,1.8-4.01,2.83-6.49,2.89
		C146.05,143.55,145.97,143.55,145.89,143.55z M100.1,98.11l42.15,39.99c1.03,0.97,2.36,1.5,3.78,1.45c1.41-0.04,2.73-0.62,3.7-1.65
		l0.23-0.24c0.97-1.02,1.49-2.37,1.45-3.78c-0.04-1.41-0.62-2.73-1.65-3.7l-42.42-40.25l0.76-1.36c2.73-4.86,4.17-10.39,4.17-15.98
		c0-18.04-14.68-32.72-32.72-32.72S46.84,54.56,46.84,72.6s14.68,32.72,32.72,32.72c6.95,0,13.59-2.16,19.2-6.23L100.1,98.11z"/>
</g>
<g>
	<path class="st0" d="M79.96,44.66c-15.39,0-27.87,12.48-27.87,27.87c0,15.39,12.48,27.87,27.87,27.87s27.87-12.48,27.87-27.87
		C107.84,57.14,95.36,44.66,79.96,44.66z M91.84,76.02h-8.4l-0.02,8.4l-6.98-0.02l0.02-8.38h-8.38v-6.98h8.4l0.02-8.4l6.98,0.02
		l-0.02,8.38h8.38V76.02z"/>
</g>
</svg>
