<?xml version="1.0" encoding="utf-8"?>
<!-- Generator: Adobe Illustrator 26.0.0, SVG Export Plug-In . SVG Version: 6.00 Build 0)  -->
<svg version="1.1" id="Capa_1" xmlns="http://www.w3.org/2000/svg" xmlns:xlink="http://www.w3.org/1999/xlink" x="0px" y="0px"
	 viewBox="0 0 193.63 177.55" style="enable-background:new 0 0 193.63 177.55;" xml:space="preserve">
<style type="text/css">
	.st0{fill:#3EB077;}
</style>
<g>
	<path class="st0" d="M98.91,133.43c-24.9,0-45.17-20.26-45.17-45.17S74.01,43.1,98.91,43.1s45.17,20.26,45.17,45.17
		S123.82,133.43,98.91,133.43z M98.91,47.1c-22.7,0-41.17,18.47-41.17,41.17c0,22.7,18.47,41.17,41.17,41.17
		s41.17-18.47,41.17-41.17C140.08,65.56,121.61,47.1,98.91,47.1z"/>
</g>
<g>
	<path class="st0" d="M98.91,124.34c-19.89,0-36.08-16.18-36.08-36.08c0-19.89,16.18-36.08,36.08-36.08
		c19.89,0,36.08,16.18,36.08,36.08C134.99,108.15,118.81,124.34,98.91,124.34z M98.91,56.18c-17.69,0-32.08,14.39-32.08,32.08
		c0,17.69,14.39,32.08,32.08,32.08s32.08-14.39,32.08-32.08C130.99,70.57,116.6,56.18,98.91,56.18z"/>
</g>
<g>
	<path class="st0" d="M98.91,115.77c-15.17,0-27.51-12.34-27.51-27.51c0-15.17,12.34-27.51,27.51-27.51s27.51,12.34,27.51,27.51
		C126.43,103.43,114.09,115.77,98.91,115.77z M98.91,64.75c-12.97,0-23.51,10.55-23.51,23.51s10.55,23.51,23.51,23.51
		s23.51-10.55,23.51-23.51S111.88,64.75,98.91,64.75z"/>
</g>
<g>
	<path class="st0" d="M98.91,148.8c-33.38,0-60.54-27.16-60.54-60.54c0-33.38,27.16-60.54,60.54-60.54s60.54,27.16,60.54,60.54
		C159.46,121.64,132.3,148.8,98.91,148.8z M98.91,31.72c-31.18,0-56.54,25.37-56.54,56.54s25.37,56.54,56.54,56.54
		c31.18,0,56.54-25.37,56.54-56.54S130.09,31.72,98.91,31.72z"/>
</g>
<g>
	<path class="st0" d="M98.91,156.55c-37.66,0-68.29-30.64-68.29-68.29c0-37.66,30.64-68.29,68.29-68.29S167.2,50.6,167.2,88.26
		C167.2,125.92,136.57,156.55,98.91,156.55z M98.91,23.97c-35.45,0-64.29,28.84-64.29,64.29c0,35.45,28.84,64.29,64.29,64.29
		c35.45,0,64.29-28.84,64.29-64.29C163.2,52.81,134.36,23.97,98.91,23.97z"/>
</g>
<g>
	<rect x="107.01" y="86.26" class="st0" width="75.61" height="4"/>
</g>
<g>
	<rect x="14.51" y="86.26" class="st0" width="76.31" height="4"/>
</g>
<g>
	
		<rect x="96.83" y="96.59" transform="matrix(1 -2.089159e-03 2.089159e-03 1 -0.2807 0.2068)" class="st0" width="4" height="75.73"/>
</g>
<g>
	
		<rect x="96.64" y="4.2" transform="matrix(1 -2.079491e-03 2.079491e-03 1 -0.0876 0.2052)" class="st0" width="4" height="76.08"/>
</g>
<g>
	<path class="st0" d="M98.91,97.99c-5.37,0-9.73-4.37-9.73-9.73s4.37-9.73,9.73-9.73c5.37,0,9.73,4.37,9.73,9.73
		S104.28,97.99,98.91,97.99z M98.91,82.53c-3.16,0-5.73,2.57-5.73,5.73s2.57,5.73,5.73,5.73s5.73-2.57,5.73-5.73
		S102.07,82.53,98.91,82.53z"/>
</g>
</svg>
