<?xml version="1.0" encoding="utf-8"?>
<!-- Generator: Adobe Illustrator 26.0.0, SVG Export Plug-In . SVG Version: 6.00 Build 0)  -->
<svg version="1.1" id="Capa_1" xmlns="http://www.w3.org/2000/svg" xmlns:xlink="http://www.w3.org/1999/xlink" x="0px" y="0px"
	 viewBox="0 0 193.63 177.55" style="enable-background:new 0 0 193.63 177.55;" xml:space="preserve">
<style type="text/css">
	.st0{fill:#0A9E64;}
</style>
<g>
	<circle class="st0" cx="98.91" cy="88.26" r="6.33"/>
	<path class="st0" d="M157.46,108.59V62.8c0-2.06-0.77-3.93-2.03-5.37l-35.37,24.41L157.46,108.59z"/>
	<path class="st0" d="M109.18,89.35c-0.55,5.18-4.94,9.24-10.27,9.24c-5.32,0-9.71-4.04-10.27-9.22l-7.15-4.78l-41.04,30.29
		c0.57,3.93,3.94,6.96,8.03,6.96h100.83c4.49,0,8.13-3.64,8.13-8.13v-0.21l-40.91-29.24L109.18,89.35z"/>
	<path class="st0" d="M98.91,77.93c4.5,0,8.33,2.9,9.74,6.93l43.16-29.79c-0.78-0.25-1.62-0.39-2.48-0.39H48.5
		c-1.22,0-2.37,0.27-3.4,0.75L89.16,84.9C90.55,80.85,94.4,77.93,98.91,77.93z"/>
	<path class="st0" d="M41.88,58.09c-0.95,1.33-1.51,2.95-1.51,4.71v47.17l37.59-27.75L41.88,58.09z"/>
</g>
</svg>
