<?xml version="1.0" encoding="utf-8"?>
<!-- Generator: Adobe Illustrator 26.0.0, SVG Export Plug-In . SVG Version: 6.00 Build 0)  -->
<svg version="1.1" id="Capa_1" xmlns="http://www.w3.org/2000/svg" xmlns:xlink="http://www.w3.org/1999/xlink" x="0px" y="0px"
	 viewBox="0 0 193.63 177.55" style="enable-background:new 0 0 193.63 177.55;" xml:space="preserve">
<style type="text/css">
	.st0{fill:#50B47C;}
</style>
<g>
	<path class="st0" d="M82.64,132.56c-18.96,0-34.39-12.69-34.39-28.28c0-1.36,0.12-2.73,0.37-4.1c-2.61-3.3-4.04-7.31-4.04-11.41
		c0-8.48,5.9-15.85,14.55-18.43c2.51-12.02,13.05-20.9,25.17-20.9c6.23,0,12.09,2.24,16.75,6.37c5.02-4.52,11.83-7.07,19.07-7.07
		c14.77,0,26.79,10.65,26.79,23.73c0,2.79-0.54,5.51-1.6,8.1c4.54,5.15,7.02,11.77,7.02,18.81c0,15.4-12.06,27.93-26.88,27.93
		c-5.75,0-11.31-1.91-15.9-5.42C103.05,128.61,93.19,132.56,82.64,132.56z M84.3,54.44c-10.2,0-19.02,7.85-20.51,18.27l-0.25,1.72
		l-1.69,0.37c-7.22,1.59-12.27,7.33-12.27,13.98c0,3.33,1.24,6.46,3.58,9.05l0.88,0.97l-0.3,1.27c-0.33,1.4-0.49,2.82-0.49,4.22
		c0,12.83,13.19,23.28,29.39,23.28c10.02,0,19.26-4,24.72-10.71l1.68-2.06l1.96,1.81c4,3.69,9.13,5.73,14.46,5.73
		c12.06,0,21.88-10.29,21.88-22.93c0-6.31-2.4-12.19-6.76-16.56l-1.28-1.28l0.82-1.61c1.2-2.36,1.8-4.87,1.8-7.45
		c0-10.33-9.78-18.73-21.79-18.73c-6.76,0-13.03,2.64-17.2,7.25l-1.83,2.02l-1.86-1.99C95.29,56.78,89.98,54.44,84.3,54.44z"/>
</g>
</svg>
