<?xml version="1.0" encoding="utf-8"?>
<!-- Generator: Adobe Illustrator 26.0.0, SVG Export Plug-In . SVG Version: 6.00 Build 0)  -->
<svg version="1.1" id="Capa_1" xmlns="http://www.w3.org/2000/svg" xmlns:xlink="http://www.w3.org/1999/xlink" x="0px" y="0px"
	 viewBox="0 0 193.63 177.55" style="enable-background:new 0 0 193.63 177.55;" xml:space="preserve">
<style type="text/css">
	.st0{fill:#0A9E64;}
</style>
<g>
	<g>
		<rect x="67.54" y="84.43" class="st0" width="62.28" height="3"/>
	</g>
	<g>
		<rect x="54.52" y="84.43" class="st0" width="3.98" height="3"/>
	</g>
	<g>
		<rect x="41.37" y="84.43" class="st0" width="4.11" height="3"/>
	</g>
	<g>
		<rect x="41.37" y="95.36" class="st0" width="3.87" height="3"/>
	</g>
	<g>
		<rect x="54.52" y="95.36" class="st0" width="3.79" height="3"/>
	</g>
	<g>
		<rect x="67.32" y="95.36" class="st0" width="62.59" height="3"/>
	</g>
	<g>
		<rect x="138.61" y="95.29" class="st0" width="3.84" height="3"/>
	</g>
	<g>
		<rect x="151.47" y="95.29" class="st0" width="3.92" height="3"/>
	</g>
	<g>
		<polygon class="st0" points="169.08,98.29 164.53,98.29 164.53,95.29 166.08,95.29 166.08,87.36 164.39,87.36 164.39,84.36 
			169.08,84.36 		"/>
	</g>
	<g>
		<rect x="151.47" y="84.36" class="st0" width="3.65" height="3"/>
	</g>
	<g>
		<rect x="138.84" y="84.36" class="st0" width="4.08" height="3"/>
	</g>
	<g>
		<path class="st0" d="M140.11,127.56H128.1V55.09h12.01V127.56z M131.1,124.56h6.01V58.09h-6.01V124.56z"/>
	</g>
	<g>
		<path class="st0" d="M165.63,112.88h-12.01V69.77h12.01V112.88z M156.62,109.78h6.01V72.87h-6.01V109.78z"/>
	</g>
	<g>
		<path class="st0" d="M152.97,120.79h-12.01V60.38h12.01V120.79z M143.96,117.79h6.01V63.38h-6.01V117.79z"/>
	</g>
	<g>
		<path class="st0" d="M68.82,127.56H56.81V55.09h12.01V127.56z M59.81,124.61h6.01V58.04h-6.01V124.61z"/>
	</g>
	<g>
		<path class="st0" d="M42.68,112.88H31.3V69.77h11.38V112.88z M34.3,109.88h5.38V72.77H34.3V109.88z"/>
	</g>
	<g>
		<polygon class="st0" points="55.75,120.79 43.74,120.79 43.74,92.19 46.74,92.19 46.74,117.79 52.75,117.79 52.75,92.19 
			55.75,92.19 		"/>
	</g>
	<g>
		<polygon class="st0" points="55.75,102.71 52.75,102.71 52.75,64.52 46.74,64.52 46.74,102.71 43.74,102.71 43.74,60.38 
			55.75,60.38 		"/>
	</g>
	<g>
		<polygon class="st0" points="32.64,98.36 27.83,98.36 27.83,84.43 32.8,84.43 32.8,87.43 30.83,87.43 30.83,95.36 32.64,95.36 		
			"/>
	</g>
</g>
</svg>
