<?xml version="1.0" encoding="utf-8"?>
<!-- Generator: Adobe Illustrator 26.0.0, SVG Export Plug-In . SVG Version: 6.00 Build 0)  -->
<svg version="1.1" id="Capa_1" xmlns="http://www.w3.org/2000/svg" xmlns:xlink="http://www.w3.org/1999/xlink" x="0px" y="0px"
	 viewBox="0 0 193.63 177.55" style="enable-background:new 0 0 193.63 177.55;" xml:space="preserve">
<style type="text/css">
	.st0{fill:#0A9E64;}
</style>
<g>
	<path class="st0" d="M145.94,14.33H47.69c-13.98,0-25.32,11.34-25.32,25.32v98.26c0,13.98,11.34,25.32,25.32,25.32h98.26
		c13.98,0,25.32-11.34,25.32-25.32V39.65C171.26,25.67,159.93,14.33,145.94,14.33z M98.46,45.61c12.14,0,21.99,9.85,21.99,21.99
		c0,12.14-9.85,21.99-21.99,21.99c-12.14,0-21.99-9.85-21.99-21.99C76.47,55.46,86.32,45.61,98.46,45.61z M135.51,103.46v12.31v7.86
		h-7.86H69.28h-7.86v-7.86v-12.31v-3.84c0-4.34,3.52-7.86,7.86-7.86h58.37c4.34,0,7.86,3.52,7.86,7.86V103.46z"/>
</g>
</svg>
