<?xml version="1.0" encoding="utf-8"?>
<!-- Generator: Adobe Illustrator 26.0.0, SVG Export Plug-In . SVG Version: 6.00 Build 0)  -->
<svg version="1.1" id="Capa_1" xmlns="http://www.w3.org/2000/svg" xmlns:xlink="http://www.w3.org/1999/xlink" x="0px" y="0px"
	 viewBox="0 0 193.63 177.55" style="enable-background:new 0 0 193.63 177.55;" xml:space="preserve">
<style type="text/css">
	.st0{fill:#0A9E64;}
</style>
<g>
	<path class="st0" d="M100.36,106.44c7.71,0,14.15,5.54,15.56,12.84l4.08-3.93c-2.87-8.09-10.58-13.91-19.64-13.91
		c-9.06,0-16.77,5.82-19.64,13.91l4.08,3.94C86.21,111.98,92.65,106.44,100.36,106.44z"/>
	<path class="st0" d="M100.36,93.65c11.22,0,20.95,6.49,25.64,15.91l3.75-3.61c-5.75-10.31-16.77-17.3-29.39-17.3
		s-23.63,6.99-29.39,17.3l3.74,3.61C79.41,100.14,89.14,93.65,100.36,93.65z"/>
	<path class="st0" d="M100.36,80.95c14.78,0,27.77,7.81,35.08,19.51l3.67-3.54c-8.29-12.62-22.56-20.97-38.75-20.97
		c-16.19,0-30.46,8.35-38.74,20.97l3.67,3.54C72.59,88.76,85.58,80.95,100.36,80.95z"/>
	<path class="st0" d="M100.36,67.41c18.6,0,35.05,9.31,44.98,23.5l3.64-3.51c-10.88-15.12-28.61-25-48.62-25
		c-20,0-37.74,9.87-48.62,24.99l3.64,3.51C65.31,76.71,81.76,67.41,100.36,67.41z"/>
	<path class="st0" d="M100.36,52.32c22.85,0,43.18,11.02,55.96,28.01l3.62-3.49c-13.71-17.93-35.31-29.53-59.57-29.53
		c-24.26,0-45.85,11.59-59.56,29.51l3.61,3.49C57.19,63.33,77.51,52.32,100.36,52.32z"/>
	<path class="st0" d="M100.36,38.8c26.67,0,50.43,12.58,65.73,32.11l3.63-3.5C153.5,46.95,128.44,33.8,100.36,33.8
		c-28.07,0-53.12,13.14-69.34,33.59l3.63,3.5C49.94,51.38,73.7,38.8,100.36,38.8z"/>
</g>
<circle class="st0" cx="100.37" cy="125.06" r="11.59"/>
</svg>
